<svg width="25" height="26" viewBox="0 0 25 26" fill="none" xmlns="http://www.w3.org/2000/svg">
<path d="M2.34254 13.5375C3.01379 10.1775 3.35004 8.5 4.45879 7.4175C4.6637 7.21805 4.88535 7.03656 5.12129 6.875C6.40004 6 8.11254 6 11.5375 6H13.6663C17.09 6 18.8013 6 20.0788 6.875C20.3163 7.0375 20.5375 7.22 20.7413 7.41875C21.8513 8.5 22.1875 10.1788 22.8588 13.5363C23.8225 18.3563 24.305 20.7663 23.195 22.4738C22.995 22.7838 22.76 23.07 22.495 23.3275C21.0375 24.75 18.5813 24.75 13.6663 24.75H11.5375C6.62129 24.75 4.16379 24.75 2.70629 23.3275C2.44257 23.0696 2.20823 22.7833 2.00754 22.4738C0.897535 20.7663 1.38004 18.3563 2.34504 13.5363L2.34254 13.5375Z" stroke="#282828" stroke-width="1.5"/>
<path d="M16.35 11C17.0403 11 17.6 10.4404 17.6 9.75C17.6 9.05964 17.0403 8.5 16.35 8.5C15.6596 8.5 15.1 9.05964 15.1 9.75C15.1 10.4404 15.6596 11 16.35 11Z" fill="#282828"/>
<path d="M8.84998 11C9.54033 11 10.1 10.4404 10.1 9.75C10.1 9.05964 9.54033 8.5 8.84998 8.5C8.15962 8.5 7.59998 9.05964 7.59998 9.75C7.59998 10.4404 8.15962 11 8.84998 11Z" fill="#282828"/>
<path d="M8.84998 6V4.75C8.84998 3.75544 9.24506 2.80161 9.94832 2.09835C10.6516 1.39509 11.6054 1 12.6 1C13.5945 1 14.5484 1.39509 15.2516 2.09835C15.9549 2.80161 16.35 3.75544 16.35 4.75V6" stroke="#282828" stroke-width="1.5" stroke-linecap="round"/>
</svg>
