<svg width="174" height="30" viewBox="0 0 174 30" fill="none" xmlns="http://www.w3.org/2000/svg">
<path d="M5.30662 21.586C7.20628 21.2987 8.94122 20.3253 10.1948 18.8435C11.4485 17.3617 12.1372 15.4702 12.1354 13.5142C12.145 11.0588 13.0195 8.68843 14.6 6.83429C16.1804 4.98016 18.3618 3.76539 20.7474 3.41095L24.1684 2.91319C24.0759 2.80557 23.9966 2.69795 23.891 2.59032C19.585 -1.79536 11.3165 -0.476962 5.39908 5.52308C0.393058 10.689 -1.29763 17.5501 1.02707 22.2048L5.30662 21.586Z" fill="#F8F8F8"/>
<path d="M14.1959 13.5142C14.1873 15.9691 13.3151 18.3396 11.7375 20.1957C10.1599 22.0517 7.98143 23.2705 5.59721 23.6308L2.34792 24.1017L2.54604 24.3304C6.85201 28.716 15.1205 27.4111 21.0379 21.4111C26.0175 16.3527 27.7611 9.47826 25.4496 4.89078L21.0379 5.53653C19.1504 5.8158 17.4232 6.77349 16.1684 8.23657C14.9136 9.69964 14.214 11.5716 14.1959 13.5142Z" fill="#F8F8F8"/>
<path d="M54.6673 5.88146C54.6673 7.0438 53.8114 7.82838 52.7558 7.82838C51.5004 7.82838 51.044 6.89851 48.5048 6.89851C45.1952 6.89851 42.4563 9.65906 42.4563 13.2914C42.4563 17.0399 45.1096 19.6842 48.5048 19.6842C51.2722 19.6842 51.8143 18.6963 53.0411 18.6963C54.0967 18.6963 54.9526 19.5099 54.9526 20.6432C54.9526 21.6021 54.1538 22.2995 53.2408 22.6773C51.9569 23.1713 50.3878 23.4909 48.5333 23.4909C42.599 23.4909 38.1482 19.5389 38.1482 13.2914C38.1482 7.50874 42.9984 3.14997 48.5903 3.14997C50.4163 3.14997 51.7572 3.41149 53.0126 3.87643C54.0111 4.25419 54.6673 4.92253 54.6673 5.88146Z" fill="#F8F8F8"/>
<path d="M61.3234 16.575C61.3234 18.7253 62.6072 20.2654 64.6614 20.2654C66.7156 20.2654 67.9995 18.7253 67.9995 16.575C67.9995 14.4247 66.7156 12.8846 64.6614 12.8846C62.6072 12.8846 61.3234 14.4247 61.3234 16.575ZM57.6144 16.575C57.6144 12.2453 60.7242 9.63001 64.6614 9.63001C68.5986 9.63001 71.7369 12.2453 71.7369 16.575C71.7369 20.9047 68.5986 23.4909 64.6614 23.4909C60.7242 23.4909 57.6144 20.9047 57.6144 16.575Z" fill="#F8F8F8"/>
<path d="M79.9055 9.89153H84.6416V8.90354C84.6416 5.91052 85.6972 3.17902 88.9782 3.17902C90.1479 3.17902 91.2036 3.38243 92.0024 3.73114C92.9725 4.13795 93.6001 4.69007 93.6001 5.59088C93.6001 6.37546 92.9724 7.0438 92.1736 7.0438C91.7742 7.0438 91.4603 6.81133 91.0609 6.63698C90.6044 6.43357 90.205 6.37546 89.8056 6.37546C88.7214 6.37546 88.4076 7.01474 88.4076 8.55484V9.89153H90.8612C91.66 9.89153 92.2877 10.618 92.2877 11.4026C92.2877 12.2453 91.66 12.9136 90.8612 12.9136H88.4076V21.6312C88.4076 22.6482 87.5517 23.4909 86.5246 23.4909C85.4975 23.4909 84.6416 22.6482 84.6416 21.6312V12.9136H79.9055V21.6312C79.9055 22.6482 79.0496 23.4909 78.0225 23.4909C76.9954 23.4909 76.1395 22.6482 76.1395 21.6312V12.9136H75.198C74.3992 12.9136 73.743 12.2453 73.743 11.4026C73.743 10.618 74.3992 9.89153 75.198 9.89153H76.1395V8.55484C76.1395 6.02675 77.2237 3.46961 80.3906 3.46961C81.4176 3.46961 82.2165 3.6149 82.9583 3.93454C83.8427 4.3123 84.4419 4.89347 84.4419 5.76523C84.4419 6.57887 83.8998 7.21815 83.2151 7.21815C82.9012 7.21815 82.673 7.13098 82.3592 7.01474C82.0453 6.89851 81.7315 6.81133 81.3606 6.81133C80.2194 6.81133 79.9055 7.79932 79.9055 8.84543V9.89153Z" fill="#F8F8F8"/>
<path d="M104.748 19.5389C105.547 19.5389 106.146 20.2364 106.146 21.079C106.146 21.8636 105.604 22.4157 104.52 22.8516C103.35 23.3456 102.066 23.4909 100.811 23.4909C98.6141 23.4909 96.8452 22.7935 95.6469 21.544C94.4201 20.2654 93.7354 18.4928 93.7354 16.4006C93.7354 14.3956 94.4487 12.6811 95.5899 11.4897C96.7311 10.3274 98.3573 9.63001 100.412 9.63001C102.523 9.63001 104.035 10.3274 105.062 11.3735C106.317 12.6811 106.688 14.2503 106.688 15.5579C106.688 16.9237 106.003 17.7083 104.834 17.7083H97.7011C98.0435 19.4808 99.2132 20.4398 101.068 20.4398C103.065 20.4398 103.807 19.5389 104.748 19.5389ZM97.6726 15.1802H103.036C102.922 13.7854 101.981 12.6521 100.44 12.6521C98.8709 12.6521 97.9294 13.6401 97.6726 15.1802Z" fill="#F8F8F8"/>
<path d="M120.594 19.5389C121.392 19.5389 121.992 20.2364 121.992 21.079C121.992 21.8636 121.45 22.4157 120.365 22.8516C119.196 23.3456 117.912 23.4909 116.656 23.4909C114.46 23.4909 112.691 22.7935 111.492 21.544C110.266 20.2654 109.581 18.4928 109.581 16.4006C109.581 14.3956 110.294 12.6811 111.435 11.4897C112.577 10.3274 114.203 9.63001 116.257 9.63001C118.368 9.63001 119.88 10.3274 120.907 11.3735C122.163 12.6811 122.534 14.2503 122.534 15.5579C122.534 16.9237 121.849 17.7083 120.679 17.7083H113.547C113.889 19.4808 115.059 20.4398 116.913 20.4398C118.91 20.4398 119.652 19.5389 120.594 19.5389ZM113.518 15.1802H118.882C118.768 13.7854 117.826 12.6521 116.286 12.6521C114.716 12.6521 113.775 13.6401 113.518 15.1802Z" fill="#F8F8F8"/>
<path d="M140.804 17.8245C140.804 21.5149 137.552 23.2003 134.328 23.2003H128.337C127.167 23.2003 126.282 22.2995 126.282 21.1662V5.44559C126.282 4.3123 127.167 3.41149 128.337 3.41149H133.301C136.182 3.41149 139.207 5.00971 139.207 8.43861C139.207 10.4436 138.351 11.9547 136.781 12.6811V12.7393C139.577 13.4076 140.804 15.2383 140.804 17.8245ZM135.098 8.99072C135.098 7.5378 133.957 6.78228 132.559 6.78228H130.391V11.4607H132.53C133.586 11.4607 135.098 11.0248 135.098 8.99072ZM136.61 17.3014C136.61 15.8485 135.64 14.8024 133.272 14.8024H130.391V19.8005H133.415C135.098 19.8005 136.61 19.3065 136.61 17.3014Z" fill="#F8F8F8"/>
<path d="M144.489 17.4467V11.4897C144.489 10.4727 145.316 9.63001 146.372 9.63001C147.427 9.63001 148.255 10.4727 148.255 11.4897V17.2143C148.255 17.9698 148.369 18.5219 148.626 19.0159C149.025 19.7424 149.767 20.2364 150.965 20.2364C152.163 20.2364 152.905 19.7424 153.276 19.0159C153.533 18.5219 153.647 17.9698 153.647 17.2143V11.4897C153.647 10.4727 154.474 9.63001 155.53 9.63001C156.586 9.63001 157.413 10.4727 157.413 11.4897V17.4467C157.413 19.1902 157.042 20.4398 156.272 21.3987C155.131 22.8516 153.276 23.4909 150.965 23.4909C148.626 23.4909 146.743 22.8226 145.63 21.3987C144.888 20.4107 144.489 19.1902 144.489 17.4467Z" fill="#F8F8F8"/>
<path d="M171.946 9.60095C173.087 9.60095 174 10.5308 174 11.6932C174 12.2162 173.772 12.7102 173.629 13.117L169.635 23.9268C168.009 28.3146 165.041 30 162.417 30C161.39 30 160.591 29.1864 160.591 28.1693C160.591 27.1523 161.39 26.3386 162.417 26.3386C163.843 26.3386 164.842 25.6412 165.555 24.1302L160.619 13.1461C160.448 12.7683 160.163 12.1872 160.163 11.7513C160.163 10.5599 161.104 9.60095 162.245 9.60095C163.415 9.60095 164.014 10.4436 164.243 10.9958L167.41 19.1321L169.892 11.3735C170.234 10.2402 170.976 9.60095 171.946 9.60095Z" fill="#F8F8F8"/>
</svg>
